<?xml version="1.0" encoding="UTF-8"?>
<svg id="Layer_2" data-name="Layer 2" xmlns="http://www.w3.org/2000/svg" xmlns:xlink="http://www.w3.org/1999/xlink" viewBox="0 0 2325.72 367.41">
  <defs>
    <style>
      .cls-1 {
        fill: #363675;
      }

      .cls-2 {
        fill: url(#linear-gradient);
      }

      .cls-3 {
        fill: #de1e31;
      }
    </style>
    <linearGradient id="linear-gradient" x1="1209.36" y1="232.31" x2="1645.27" y2="232.31" gradientUnits="userSpaceOnUse">
      <stop offset="0" stop-color="#de1e31"/>
      <stop offset="1" stop-color="#363675"/>
    </linearGradient>
  </defs>
  <g id="Layer_1-2" data-name="Layer 1">
    <g>
      <polygon class="cls-3" points="0 2.99 104.19 2.99 104.19 270.2 256.74 270.2 256.74 359.43 0 359.43 0 2.99"/>
      <path class="cls-3" d="M516.45,317.55v-127.12c0-33.9-12.96-59.82-39.38-76.27-19.44-11.97-44.37-16.95-83.25-16.95-79.76,0-118.65,41.37-120.64,91.72h89.23c2.5-18.44,12.96-30.4,33.4-30.4s26.92,10.46,26.92,24.42c0,15.95-14.45,22.44-68.29,28.42-48.86,5.48-92.23,21.93-92.23,78.26,0,49.86,35.89,76.28,84.75,76.28,32.9,0,59.82-10.97,76.77-34.4h1c1.99,13.96,4.98,21.93,8.47,27.92h92.73v-3.99c-7.98-4.99-9.48-16.45-9.48-37.89ZM425.23,267.2c0,30.41-20.94,42.87-42.88,42.87-15.45,0-29.41-7.47-29.41-24.42,0-14.96,8.48-22.94,35.89-28.92,15.96-3.49,27.42-7.48,36.4-11.96v22.43Z"/>
    </g>
    <path class="cls-3" d="M912.26,256.24c-5.99-27.92-20.94-47.86-49.86-58.83v-1.5c37.39-16.94,58.33-45.86,58.33-86.74,0-72.78-61.81-106.18-134.6-106.18h-176.97v356.44h104.19v-124.13h48.35c30.41,0,42.38,13.95,48.86,41.37,7.48,31.91,3.49,75.78,13.46,82.76h102.69v-5.49c-12.96-3.49-4.98-54.83-14.45-97.7ZM769.18,161.02h-55.83v-76.28h57.33c29.91,0,44.87,14.96,44.87,38.39,0,24.93-16.46,37.89-46.37,37.89Z"/>
    <path class="cls-3" d="M1154.53,131.11c-23.43-21.44-53.84-34.4-93.72-34.4-80.26,0-135.6,58.33-135.6,135.1s55.84,134.6,139.09,134.6c32.4,0,57.83-6.48,81.26-21.44,24.92-15.95,42.87-38.38,48.35-61.32h-91.22c-6.98,12.47-18.95,18.95-35.4,18.95-28.41,0-44.37-17.95-49.85-47.36h181.46c1-50.35-13.46-95.72-44.37-124.13ZM1017.44,205.39c4.98-27.92,19.44-45.37,45.36-45.37,22.44,0,38.39,16.95,42.38,45.37h-87.74Z"/>
    <path class="cls-2" d="M1556.02,97.21c-35.38,0-61.31,14.95-81.75,42.88h-1.5v-34.9h-96.42v137.1c0,27.42-14.46,44.86-38.88,44.86-22.44,0-33.9-13.95-33.9-40.38V105.18h-94.22v164.01c0,58.33,29.91,98.21,90.73,98.21,34.89,0,59.82-14.46,79.27-40.88h1.5v32.9h96.42v-137.1c0-27.42,14.46-48.35,38.39-48.35s35.38,17.44,35.38,43.87v141.58h94.23v-164.52c0-58.31-30.41-97.71-89.25-97.71Z"/>
    <rect class="cls-1" x="1666.2" y="2.99" width="94.22" height="71.29"/>
    <rect class="cls-1" x="1666.2" y="105.19" width="94.22" height="254.24"/>
    <path class="cls-1" d="M1912.46,97.71c-84.75,0-139.58,57.82-139.58,135.09s54.83,134.6,139.58,134.6,138.59-57.33,138.59-134.6-53.84-135.09-138.59-135.09ZM1911.46,304.59c-28.91,0-42.87-28.91-42.87-71.79s13.96-71.78,42.87-71.78,43.87,28.91,43.87,71.78-14.95,71.79-43.87,71.79Z"/>
    <polygon class="cls-1" points="1902.48 0 2010.66 0 1944.36 77.27 1873.57 77.27 1902.48 0"/>
    <path class="cls-1" d="M2153.23,140.08h1.49c20.44-27.92,46.36-42.87,81.76-42.87,58.82,0,89.24,39.38,89.24,97.71v164.51h-94.22v-141.58c0-26.42-10.97-43.87-35.39-43.87s-38.38,20.94-38.38,48.36v137.09h-94.22V105.19h89.73v34.9Z"/>
  </g>
</svg>